<svg xmlns="http://www.w3.org/2000/svg" xmlns:amcharts="http://amcharts.com/ammap" xmlns:xlink="http://www.w3.org/1999/xlink" version="1.1"><defs><style type="text/css">.land{fill:#ccc;fill-opacity:1;stroke:#fff;stroke-opacity:1;stroke-width:.5}</style><amcharts:ammap bottomLatitude="-21.959" leftLongitude="-165.878" projection="mercator" rightLongitude="-157.322" topLatitude="-8.917"/></defs><g><path id="CK-1" d="M736.48,13.75L734.12,10.82L737.47,15.31L736.48,13.75zM734.37,0L737.16,2.2L740.71,2.65L734.37,0z" class="land" title="Penrhyn"/><path id="CK-2" d="M454.71,136.16L459.23,140.04L453.75,135.15L454.71,136.16z" class="land" title="Manihiki"/><path id="CK-3" d="M445.15,103.04L445.22,103.95L446.84,102.31L445.15,103.04z" class="land" title="Rakahanga"/><path id="CK-4" d="M2.28,190.19L2.13,189.36L0.32,190.35L2.28,190.19zM1.32,184.6L1.92,183.85L0.33,183.9L1.32,184.6z" class="land" title="Pukapuka"/><path id="CK-5" d="M567.51,956.94L565.89,960.41L566.71,962.56L568.32,961.64L568.96,957.28L569.74,958.38L568.68,956.75L567.51,956.94z" class="land" title="Palmerston"/><path id="CK-6" d="M799.68,1088.88L798.6,1087.53L796.29,1087.69L797.1,1090.93L799.2,1090.54L799.68,1088.88z" class="land" title="Mauke"/><path id="CK-7" d="M762.57,1050.11L759.37,1053.84L761.29,1058.96L762.55,1057.5L762.57,1050.11z" class="land" title="Mitiaro"/><path id="CK-8" d="M566.31,1192.36L563.16,1193.31L561.76,1197.16L571.44,1199.23L571.49,1193.91L566.31,1192.36z" class="land" title="Rarotonga"/><path id="CK-9" d="M741.94,1268.37L745.76,1267.1L741.3,1262.16L738.53,1264.48L738.81,1266.85L741.94,1268.37z" class="land" title="Mangaia"/><path id="CK-10" d="M647.06,999.29L645.41,998.11L647.11,1000L648.86,999.98L647.06,999.29zM650.77,999.03L649.34,997.32L649.6,999.03L650.77,999.03z" class="land" title="Aitutaki"/><path id="CK-11" d="M727.47,1074.64L727.8,1072.78L722.45,1071.01L724.34,1074.93L727.47,1074.64z" class="land" title="Atiu"/></g></svg>