<svg xmlns="http://www.w3.org/2000/svg" xmlns:amcharts="http://amcharts.com/ammap" xmlns:xlink="http://www.w3.org/1999/xlink" version="1.1"><defs><style type="text/css">.land{fill:#ccc;fill-opacity:1;stroke:#fff;stroke-opacity:1;stroke-width:.5}</style><amcharts:ammap bottomLatitude="-9.504" leftLongitude="124.042" projection="mercator" rightLongitude="127.343" topLatitude="-8.127"/></defs><g><path id="TL-LA" d="M656.72,153.74L727.86,132.78L798.81,68.79L714.71,42.71L646.96,72.71L676.97,119.14L659.3,137.88L656.72,153.74z" class="land" title="Lautem"/><path id="TL-VI" d="M605.81,134.63L590.4,115.94L584.77,140.32L513.79,134.1L487.95,161.87L513.3,212.49L656.72,153.74L659.3,137.88L605.81,134.63z" class="land" title="Viqueque"/><path id="TL-MF" d="M432.45,151.82L404.04,162.01L377.48,212.29L399.63,260.06L491.32,226.61L432.45,151.82z" class="land" title="Manufahi"/><path id="TL-MT" d="M514.24,90.31L438.12,87.38L442.36,92.94L422.36,109.96L432.45,151.82L491.32,226.61L513.3,212.49L487.95,161.87L513.79,134.1L514.24,90.31z" class="land" title="Manatuto"/><path id="TL-ER" d="M357.03,126.4L280.37,152.13L337.19,208.13L355.38,177.01L357.03,126.4z" class="land" title="Ermera"/><path id="TL-CO" d="M355.39,271.76L336.59,220.91L312.44,264.06L273.92,254.54L226.61,264.66L251.8,332.08L355.39,271.76z" class="land" title="Cova Lima"/><path id="TL-BO" d="M271.42,152.57L261.84,148.65L214.46,221.73L259.06,209.71L273.92,254.54L312.44,264.06L336.59,220.91L337.19,208.13L280.37,152.13L271.42,152.57z" class="land" title="Bobonaro"/><path id="TL-BA" d="M646.96,72.71L514.24,90.31L513.79,134.1L584.77,140.32L590.4,115.94L605.81,134.63L659.3,137.88L676.97,119.14L646.96,72.71z" class="land" title="Baucau"/><path id="TL-AN" d="M404.04,162.01L355.38,177.01L337.19,208.13L336.59,220.91L355.39,271.76L399.63,260.06L377.48,212.29L404.04,162.01z" class="land" title="Ainaro"/><path id="TL-AL" d="M421.87,110.1L361.18,119.15L357.03,126.4L355.38,177.01L404.04,162.01L432.45,151.82L422.36,109.96L421.87,110.1z" class="land" title="Aileu"/><path id="TL-OE" d="M56.45,335.89L103.34,256.84L1.19,296.67L56.45,335.89z" class="land" title="Oecussi"/><path id="TL-LI" d="M361.18,119.15L355.83,106.37L271.89,121.9L261.84,148.65L271.42,152.57L280.37,152.13L357.03,126.4L361.18,119.15z" class="land" title="Liquica"/><path id="TL-DI" d="M442.36,92.94L438.12,87.38L355.83,106.37L361.18,119.15L421.87,110.1L422.36,109.96L442.36,92.94zM390.49,0L359.85,30.92L378.47,44.03L390.49,0z" class="land" title="Dili"/></g></svg>