<svg xmlns="http://www.w3.org/2000/svg" xmlns:amcharts="http://amcharts.com/ammap" xmlns:xlink="http://www.w3.org/1999/xlink" version="1.1"><defs><style type="text/css">.land{fill:#ccc;fill-opacity:1;stroke:#fff;stroke-opacity:1;stroke-width:.5}</style><amcharts:ammap bottomLatitude="18.021" leftLongitude="-74.481" projection="mercator" rightLongitude="-71.622" topLatitude="20.09"/></defs><g><path id="HT-SE" d="M580.81,507.97L413.67,524.43L409.49,554.88L410.74,566.79L676.53,549.91L760.42,609.14L776.07,533.04L580.81,507.97z" class="land" title="Sud-Est"/><path id="HT-OU" d="M463.99,411.3L456.71,373.4L328.94,340.57L463.99,411.3zM544.74,333.4L496.47,338.25L603.1,416.51L596.46,462.39L397.14,483.84L413.67,524.43L580.81,507.97L776.07,533.04L694.11,441.82L756.01,417.29L593.23,361.42L544.74,333.4z" class="land" title="Ouest"/><path id="HT-ND" d="M683.3,107.27L536.46,57.89L505.12,78.7L559.96,158.2L604.01,151.54L640.11,230.78L702.9,220.6L665.47,151.24L683.3,107.27z" class="land" title="Nord"/><path id="HT-NE" d="M765.76,107.85L683.3,107.27L665.47,151.24L702.9,220.6L742.99,238.24L768.01,237.46L765.76,107.85z" class="land" title="Nord-Est"/><path id="HT-CE" d="M742.99,238.24L702.9,220.6L640.11,230.78L626.66,358.38L593.23,361.42L756.01,417.29L774.13,362.31L735.11,332.19L799.35,257.79L768.01,237.46L742.99,238.24z" class="land" title="Centre"/><path id="HT-AR" d="M505.12,78.7L378.73,132.27L498.43,187.47L468.84,251.83L496.15,285.88L464.59,297.92L496.47,338.25L544.74,333.4L593.23,361.42L626.66,358.38L640.11,230.78L604.01,151.54L559.96,158.2L505.12,78.7z" class="land" title="L'Artibonite"/><path id="HT-SD" d="M215.94,588.95L223.61,602.01L248.95,600.87L215.94,588.95zM165.12,613.04L229.55,543.58L410.74,566.79L409.49,554.88L380.13,514.76L247.84,497.51L190.45,493.94L0.65,513L165.12,613.04z" class="land" title="Sud"/><path id="HT-NO" d="M476.6,37.3L365.59,39.18L280.13,103.42L378.73,132.27L505.12,78.7L536.46,57.89L476.6,37.3zM480.46,0L424.28,1.86L515.53,24.93L480.46,0z" class="land" title="Nord-Ouest"/><path id="HT-NI" d="M397.14,483.84L203.14,458.29L190.45,493.94L247.84,497.51L380.13,514.76L409.49,554.88L413.67,524.43L397.14,483.84z" class="land" title="Nippes"/><path id="HT-GA" d="M210.17,441.07L186.92,432.88L194.58,444.95L210.17,441.07zM83.73,423.74L10.34,436.22L0.65,513L190.45,493.94L203.14,458.29L83.73,423.74z" class="land" title="Grand'Anse"/></g></svg>