<svg xmlns="http://www.w3.org/2000/svg" xmlns:amcharts="http://amcharts.com/ammap" xmlns:xlink="http://www.w3.org/1999/xlink" version="1.1"><defs><style type="text/css">.land{fill:#ccc;fill-opacity:1;stroke:#fff;stroke-opacity:1;stroke-width:.5}</style><amcharts:ammap bottomLatitude="17.706" leftLongitude="-78.369" projection="mercator" rightLongitude="-76.183" topLatitude="18.525"/></defs><g><path id="JM-03" d="M773.63,200.63L674.36,190.73L638.33,170.99L642.54,207.33L627.62,226.18L647.46,249.97L734.89,252.57L798.73,231.63L773.63,200.63z" class="land" title="Saint Thomas"/><path id="JM-02" d="M593.24,146.05L548.97,142.34L542.84,188.68L557.31,202.19L570.99,210.14L591.78,200.53L602.17,216.94L563.76,223.54L627.62,226.18L642.54,207.33L638.33,170.99L601.83,167.58L593.24,146.05z" class="land" title="Saint Andrew"/><path id="JM-05" d="M611.47,96.85L578.31,90.47L540.91,42.11L476.94,40.54L503.9,106.38L519.87,106.05L548.97,142.34L593.24,146.05L611.47,96.85z" class="land" title="Saint Mary"/><path id="JM-14" d="M548.97,142.34L519.87,106.05L503.9,106.38L425.69,127.83L453.51,243.27L479.18,237.76L488.62,258.03L523.7,263.02L557.31,202.19L542.84,188.68L548.97,142.34z" class="land" title="Saint Catherine"/><path id="JM-06" d="M476.94,40.54L332.91,16.43L323.48,123.99L425.69,127.83L503.9,106.38L476.94,40.54z" class="land" title="Saint Ann"/><path id="JM-04" d="M773.63,200.63L739.22,139.38L611.47,96.85L593.24,146.05L601.83,167.58L638.33,170.99L674.36,190.73L773.63,200.63z" class="land" title="Portland"/><path id="JM-01" d="M602.17,216.94L591.78,200.53L570.99,210.14L602.17,216.94z" class="land" title="Kingston"/><path id="JM-10" d="M166.57,85.58L101.37,69.26L11.71,84.88L1.27,97.31L13.65,114.1L119.57,128.2L150.81,179.83L175.88,124.2L166.57,85.58z" class="land" title="Westmoreland"/><path id="JM-07" d="M332.91,16.43L234.35,4.65L217.63,109.27L269.09,114.49L323.48,123.99L332.91,16.43z" class="land" title="Trelawny"/><path id="JM-08" d="M173.53,0L137.85,27.72L166.57,85.58L175.88,124.2L217.63,109.27L234.35,4.65L173.53,0z" class="land" title="Saint James"/><path id="JM-11" d="M269.09,114.49L217.63,109.27L175.88,124.2L150.81,179.83L194.23,192.69L196.38,218.54L236.12,254.88L296.71,254L269.09,114.49z" class="land" title="Saint Elizabeth"/><path id="JM-12" d="M323.48,123.99L269.09,114.49L296.71,254L358.7,255.43L371.68,238.49L323.48,123.99z" class="land" title="Manchester"/><path id="JM-09" d="M137.85,27.72L53.8,28.66L15.58,59.72L11.71,84.88L101.37,69.26L166.57,85.58L137.85,27.72z" class="land" title="Hanover"/><path id="JM-13" d="M444.93,312.94L451.27,289.17L423.65,286.55L438.8,284.2L453.51,243.27L425.69,127.83L323.48,123.99L371.68,238.49L358.7,255.43L444.93,312.94z" class="land" title="Clarendon"/></g></svg>