<svg xmlns="http://www.w3.org/2000/svg" xmlns:xlink="http://www.w3.org/1999/xlink" width="1260" height="1260" version="1.1" viewBox="0 0 1260 1260"><title>Kevin Hou&apos;s Logo</title><desc>Created with Sketch.</desc><defs><rect id="path-1" width="1260" height="1260" x="0" y="0" rx="125"/><mask id="mask-2" width="1260" height="1260" x="0" y="0" fill="#fff" maskContentUnits="userSpaceOnUse" maskUnits="objectBoundingBox"><use xlink:href="#path-1"/></mask></defs><g id="SVG-Logo" fill="none" fill-rule="evenodd" stroke="none" stroke-width="1"><g id="SVG-Primed"><use id="Logo-Outline" fill="#FFF" stroke="#3286A8" stroke-width="6" mask="url(#mask-2)" xlink:href="#path-1"/><path id="Left-Half" fill="#3286A8" d="M640,0 L640,1260 L125.002712,1260 C55.9656206,1260 0,1204.02885 0,1134.99661 L0,125.003386 C0,55.9659223 55.9604005,0 125.002712,0 L640,0 Z"/><polygon id="K-Carrot" fill="#FFF" points="242.112 540 57.016 540 314.601 839.991 57 1140 242.096 1140 499.351 839.991"/><rect id="K-Straight-Leg" width="140" height="1020" x="500" y="120" fill="#FFF"/><path id="Right-Half" fill="#D5491F" d="M780,120 L640,120 L640,1140 L780,1140 L780,720.292305 C783.049438,653.574618 844.555658,600.292305 920,600.292305 C995.444342,600.292305 1056.95056,653.574618 1059.89005,720.292266 L1060,804.076263 L1060,1140 L1200,1140 L1200,680 C1187.924,566.58012 1067.23291,477.292305 920,477.292305 C868.999768,477.292305 821.184211,488.00569 779.999922,506.724423 L780,120 Z"/></g></g></svg>