<?xml version="1.0" encoding="UTF-8"?>
<svg width="1260px" height="1260px" viewBox="0 0 1260 1260" version="1.1" xmlns="http://www.w3.org/2000/svg" xmlns:xlink="http://www.w3.org/1999/xlink">
    <!-- Generator: Sketch 46.1 (44463) - http://www.bohemiancoding.com/sketch -->
    <title>Animated Personal Logo</title>
    <desc>Author: Kevin Hou</desc>
    <defs></defs>
    <g id="Square-Logo" stroke="none" stroke-width="1" fill="none" fill-rule="evenodd">
        <g id="Logo---Clean-SVG">
            <rect class="kh-logo-background" id="background" fill="#FFFFFF" x="0" y="0" width="1260" height="1260" rx="125"></rect>
            <rect class="kh-logo-outline" id="outline" stroke="#3286A8" stroke-width="10" x="1.5" y="1.5" width="1257" height="1257" rx="125"></rect>
            <path class="kh-logo-background" d="M640,0 L640,120 L500,120 L500,837 L242,540 L57,540 L315,840 L57,1140 L242,1140 L500,839 L500,1140 L640,1140 L640,1260 L125.002712,1260 C55.9656206,1260 0,1204.02885 0,1134.99661 L0,125.003386 C0,55.9659223 55.9604005,0 125.002712,0 L640,0 Z" id="final-left" fill="#3286A8"></path>
            <polygon class="kh-logo-k" id="k" fill="#FFFFFF" points="499.350822 1139.99996 640 1140 639.999969 120 499.350006 120.000039 499.350833 836 242.111936 540.000007 57.0160855 540.000007 314.601197 839.990617 57 1139.99996 242.09585 1139.99996 499.350833 839.990602" stroke="#3286A8" stroke-width="10"></polygon>
            <path class="kh-logo-k" d="M780,506.724388 C782.540303,505.569792 785.105834,504.445653 787.695787,503.352607 C827.095043,486.724805 872.145563,477.292305 920,477.292305 C1067.23291,477.292305 1187.924,566.58012 1199.14777,680 L1200,1140 L1060,1140 L1060,720.292305 C1056.95056,653.574618 995.444342,600.292305 920,600.292305 C844.555658,600.292305 783.049438,653.574618 780.109953,720.292305 L780,887.741465 L780,1140 L640,1140 L640,120 L780,120 L780,506.724388 L780,506.724388 Z" id="h" stroke="#D5491F" stroke-width="10"></path>
            <path class="kh-logo-background" d="M780,506.724388 C782.540303,505.569792 785.105834,504.445653 787.695787,503.352607 C827.095043,486.724805 872.145563,477.292305 920,477.292305 C1067.23291,477.292305 1187.924,566.58012 1199.14777,680 L1200,1140 L1060,1140 L1060,720.292305 C1056.95056,653.574618 995.444342,600.292305 920,600.292305 C844.555658,600.292305 783.049438,653.574618 780.109953,720.292305 L780,887.741465 L780,1140 L640,1140 L640,120 L780,120 L780,506.724388 L780,506.724388 Z" id="h" fill="#D5491F"></path>
        </g>
    </g>
    <style>
    	.kh-logo-background {
		  opacity: 0;
		  -webkit-animation: drawLogoFadeIn 1000ms ease-in-out;
		          animation: drawLogoFadeIn 1000ms ease-in-out;
		  -webkit-animation-delay: 2500ms;
		          animation-delay: 2500ms;
		  -webkit-animation-fill-mode: forwards;
		          animation-fill-mode: forwards;
		}

		.kh-logo-k {
		  stroke-dasharray: 4400;
		  stroke-dashoffset: 100;
		  -webkit-animation: drawLogo 2500ms ease-in-out;
		          animation: drawLogo 2500ms ease-in-out;
		}

		.kh-logo-outline {
		  stroke-dasharray: 5200;
		  stroke-dashoffset: 300;
		  -webkit-animation: drawLogo 2500ms ease-in-out;
		          animation: drawLogo 2500ms ease-in-out;
		}

		@-webkit-keyframes drawLogo {
		  from {
		    stroke-dasharray: 700;
		    stroke-dashoffset: 80;
		  }
		}

		@keyframes drawLogo {
		  from {
		    stroke-dasharray: 700;
		    stroke-dashoffset: 80;
		  }
		}

		@-webkit-keyframes drawLogoFadeIn {
		  from {
		    opacity: 0;
		  }
		  to {
		    opacity: 1;
		  }
		}

		@keyframes drawLogoFadeIn {
		  from {
		    opacity: 0;
		  }
		  to {
		    opacity: 1;
		  }
		}
	</style>
</svg>