{
  "asset": {
    "version": "2.0",
    "generator": "THREE.GLTFExporter r174"
  },
  "scenes": [
    {
      "name": "AuxScene",
      "nodes": [
        14
      ]
    }
  ],
  "scene": 0,
  "nodes": [
    {
      "translation": [
        -630,
        -630,
        -30.5
      ],
      "extras": {
        "isHole": false
      },
      "mesh": 0
    },
    {
      "children": [
        0
      ]
    },
    {
      "translation": [
        -630,
        -630,
        -30.5
      ],
      "scale": [
        1.01,
        1.01,
        1.06
      ],
      "extras": {
        "isHole": true
      },
      "mesh": 1
    },
    {
      "children": [
        2
      ]
    },
    {
      "translation": [
        -630,
        -630,
        -30.5
      ],
      "scale": [
        1.01,
        1.01,
        1.06
      ],
      "extras": {
        "isHole": true
      },
      "mesh": 2
    },
    {
      "children": [
        4
      ]
    },
    {
      "translation": [
        -630,
        -630,
        -30.5
      ],
      "scale": [
        1.01,
        1.01,
        1.06
      ],
      "extras": {
        "isHole": true
      },
      "mesh": 3
    },
    {
      "children": [
        6
      ]
    },
    {
      "translation": [
        -630,
        -630,
        -30.5
      ],
      "scale": [
        1.01,
        1.01,
        1.06
      ],
      "extras": {
        "isHole": true
      },
      "mesh": 4
    },
    {
      "children": [
        8
      ]
    },
    {
      "rotation": [
        0,
        0.3826834323650898,
        0,
        0.9238795325112867
      ],
      "scale": [
        0.07936507936507936,
        -0.07936507936507936,
        0.07936507936507936
      ],
      "children": [
        1,
        3,
        5,
        7,
        9
      ]
    },
    {
      "children": [
        10
      ]
    },
    {
      "children": [
        11
      ]
    },
    {
      "children": [
        12
      ]
    },
    {
      "children": [
        13
      ]
    }
  ],
  "bufferViews": [
    {
      "buffer": 0,
      "byteOffset": 0,
      "byteLength": 5040,
      "target": 34962,
      "byteStride": 12
    },
    {
      "buffer": 0,
      "byteOffset": 5040,
      "byteLength": 3360,
      "target": 34962,
      "byteStride": 8
    },
    {
      "buffer": 0,
      "byteOffset": 8400,
      "byteLength": 5040,
      "target": 34962,
      "byteStride": 12
    },
    {
      "buffer": 0,
      "byteOffset": 13440,
      "byteLength": 2736,
      "target": 34962,
      "byteStride": 12
    },
    {
      "buffer": 0,
      "byteOffset": 16176,
      "byteLength": 1824,
      "target": 34962,
      "byteStride": 8
    },
    {
      "buffer": 0,
      "byteOffset": 18000,
      "byteLength": 2736,
      "target": 34962,
      "byteStride": 12
    },
    {
      "buffer": 0,
      "byteOffset": 20736,
      "byteLength": 720,
      "target": 34962,
      "byteStride": 12
    },
    {
      "buffer": 0,
      "byteOffset": 21456,
      "byteLength": 480,
      "target": 34962,
      "byteStride": 8
    },
    {
      "buffer": 0,
      "byteOffset": 21936,
      "byteLength": 720,
      "target": 34962,
      "byteStride": 12
    },
    {
      "buffer": 0,
      "byteOffset": 22656,
      "byteLength": 432,
      "target": 34962,
      "byteStride": 12
    },
    {
      "buffer": 0,
      "byteOffset": 23088,
      "byteLength": 288,
      "target": 34962,
      "byteStride": 8
    },
    {
      "buffer": 0,
      "byteOffset": 23376,
      "byteLength": 432,
      "target": 34962,
      "byteStride": 12
    },
    {
      "buffer": 0,
      "byteOffset": 23808,
      "byteLength": 5760,
      "target": 34962,
      "byteStride": 12
    },
    {
      "buffer": 0,
      "byteOffset": 29568,
      "byteLength": 3840,
      "target": 34962,
      "byteStride": 8
    },
    {
      "buffer": 0,
      "byteOffset": 33408,
      "byteLength": 5760,
      "target": 34962,
      "byteStride": 12
    }
  ],
  "buffers": [
    {
      "byteLength": 39168,
      "uri": "data:application/octet-stream;base64,"
    }
  ],
  "accessors": [
    {
      "bufferView": 0,
      "componentType": 5126,
      "count": 420,
      "max": [
        1260,
        1260,
        61
      ],
      "min": [
        0,
        0,
        0
      ],
      "type": "VEC3"
    },
    {
      "bufferView": 1,
      "componentType": 5126,
      "count": 420,
      "max": [
        1260,
        1260
      ],
      "min": [
        0,
        -60
      ],
      "type": "VEC2"
    },
    {
      "bufferView": 2,
      "componentType": 5126,
      "count": 420,
      "max": [
        1,
        1,
        1
      ],
      "min": [
        -1,
        -1,
        -1
      ],
      "type": "VEC3"
    },
    {
      "bufferView": 3,
      "componentType": 5126,
      "count": 228,
      "max": [
        640,
        1260,
        61
      ],
      "min": [
        0,
        0,
        0
      ],
      "type": "VEC3"
    },
    {
      "bufferView": 4,
      "componentType": 5126,
      "count": 228,
      "max": [
        1260,
        1260
      ],
      "min": [
        0,
        -60
      ],
      "type": "VEC2"
    },
    {
      "bufferView": 5,
      "componentType": 5126,
      "count": 228,
      "max": [
        1,
        1,
        1
      ],
      "min": [
        -1,
        -1,
        -1
      ],
      "type": "VEC3"
    },
    {
      "bufferView": 6,
      "componentType": 5126,
      "count": 60,
      "max": [
        499.350830078125,
        1140,
        61
      ],
      "min": [
        57,
        540,
        0
      ],
      "type": "VEC3"
    },
    {
      "bufferView": 7,
      "componentType": 5126,
      "count": 60,
      "max": [
        1140,
        1140
      ],
      "min": [
        57,
        -60
      ],
      "type": "VEC2"
    },
    {
      "bufferView": 8,
      "componentType": 5126,
      "count": 60,
      "max": [
        0.7591264843940735,
        1,
        1
      ],
      "min": [
        -0.7586936950683594,
        -1,
        -1
      ],
      "type": "VEC3"
    },
    {
      "bufferView": 9,
      "componentType": 5126,
      "count": 36,
      "max": [
        640,
        1140,
        61
      ],
      "min": [
        500,
        120,
        0
      ],
      "type": "VEC3"
    },
    {
      "bufferView": 10,
      "componentType": 5126,
      "count": 36,
      "max": [
        1140,
        1140
      ],
      "min": [
        120,
        -60
      ],
      "type": "VEC2"
    },
    {
      "bufferView": 11,
      "componentType": 5126,
      "count": 36,
      "max": [
        1,
        1,
        1
      ],
      "min": [
        -1,
        -1,
        -1
      ],
      "type": "VEC3"
    },
    {
      "bufferView": 12,
      "componentType": 5126,
      "count": 480,
      "max": [
        1200,
        1140,
        61
      ],
      "min": [
        640,
        120,
        0
      ],
      "type": "VEC3"
    },
    {
      "bufferView": 13,
      "componentType": 5126,
      "count": 480,
      "max": [
        1200,
        1140
      ],
      "min": [
        120,
        -60
      ],
      "type": "VEC2"
    },
    {
      "bufferView": 14,
      "componentType": 5126,
      "count": 480,
      "max": [
        1,
        1,
        1
      ],
      "min": [
        -1,
        -1,
        -1
      ],
      "type": "VEC3"
    }
  ],
  "materials": [
    {
      "pbrMetallicRoughness": {
        "metallicFactor": 0.5,
        "roughnessFactor": 0.05
      },
      "extras": {
        "isHole": false
      }
    },
    {
      "pbrMetallicRoughness": {
        "baseColorFactor": [
          0,
          0,
          0,
          0.5
        ],
        "metallicFactor": 0.5,
        "roughnessFactor": 0.05
      },
      "alphaMode": "BLEND",
      "extras": {
        "isHole": true
      }
    }
  ],
  "meshes": [
    {
      "primitives": [
        {
          "mode": 4,
          "attributes": {
            "POSITION": 0,
            "TEXCOORD_0": 1,
            "NORMAL": 2
          },
          "material": 0
        }
      ]
    },
    {
      "primitives": [
        {
          "mode": 4,
          "attributes": {
            "POSITION": 3,
            "TEXCOORD_0": 4,
            "NORMAL": 5
          },
          "material": 1
        }
      ]
    },
    {
      "primitives": [
        {
          "mode": 4,
          "attributes": {
            "POSITION": 6,
            "TEXCOORD_0": 7,
            "NORMAL": 8
          },
          "material": 1
        }
      ]
    },
    {
      "primitives": [
        {
          "mode": 4,
          "attributes": {
            "POSITION": 9,
            "TEXCOORD_0": 10,
            "NORMAL": 11
          },
          "material": 1
        }
      ]
    },
    {
      "primitives": [
        {
          "mode": 4,
          "attributes": {
            "POSITION": 12,
            "TEXCOORD_0": 13,
            "NORMAL": 14
          },
          "material": 1
        }
      ]
    }
  ]
}