<?xml version="1.0" encoding="UTF-8" standalone="no"?>
<svg width="700px" height="220px" viewBox="0 0 700 220" version="1.1" xmlns="http://www.w3.org/2000/svg" xmlns:xlink="http://www.w3.org/1999/xlink">
    <!-- Generator: Sketch 39.1 (31720) - http://www.bohemiancoding.com/sketch -->
    <title>Content</title>
    <desc>Created with Sketch.</desc>
    <defs></defs>
    <g id="Blog" stroke="none" stroke-width="1" fill="none" fill-rule="evenodd">
        <g id="Blog-Landing-Section" transform="translate(-370.000000, -326.000000)" fill="#FFFFFF">
            <text id="design" font-family="ProximaNova-Light, Proxima Nova" font-size="24" font-weight="300">
                <tspan x="824" y="362">design</tspan>
            </text>
            <text id="programming" font-family="ProximaNova-Light, Proxima Nova" font-size="24" font-weight="300">
                <tspan x="824" y="391">programming</tspan>
            </text>
            <text id="woodshop" font-family="ProximaNova-Light, Proxima Nova" font-size="24" font-weight="300">
                <tspan x="824" y="420">woodshop</tspan>
            </text>
            <text id="KHou" font-family="ProximaNova-Light, Proxima Nova" font-size="140" font-weight="300">
                <tspan x="478" y="420">KHou</tspan>
            </text>
            <rect id="Rectangle-2" x="370" y="449" width="700" height="1"></rect>
            <text id="a-blog-on-learning-a" font-family="ProximaNova-Light, Proxima Nova" font-size="32" font-weight="300">
                <tspan x="506.136" y="505">a blog on learning and building</tspan>
            </text>
            <g id="Carrot-Arrow" transform="translate(710.000000, 533.000000)">
                <path d="M10.2492041,12.2830161 C10.2492041,12.2830161 10.1381761,12.3970972 9.98519245,12.3970972 C9.83220879,12.3970972 9.72491156,12.2848388 9.72491156,12.2848388 L0.407884136,2.9142326 C0.407884136,2.9142326 -0.625436697,1.83923707 0.597304054,0.603170605 C1.82004481,-0.632895863 2.90836605,0.413750687 2.90836605,0.413750687 C2.90836605,0.413750687 7.54429244,5.04635107 9.86387965,7.36593829 C9.91248238,7.41454101 9.94299144,7.45242758 10.0191826,7.4507478 C10.0953738,7.44906802 10.1145241,7.41673227 10.1653182,7.36593815 C12.4740901,5.05716624 17.091634,0.439622417 17.091634,0.439622417 C17.091634,0.439622417 18.1799552,-0.607024133 19.4026959,0.629042335 C20.6254367,1.8651088 19.5921159,2.94010433 19.5921159,2.94010433 L10.2492041,12.2830161 Z" id="Combined-Shape"></path>
            </g>
        </g>
    </g>
</svg>