<svg xmlns="http://www.w3.org/2000/svg" xmlns:xlink="http://www.w3.org/1999/xlink" width="350" height="329" version="1.1" viewBox="-100 0 550 329"><title>Pendulum</title><desc>Created with Sketch.</desc><defs><linearGradient id="linearGradient-1" x1="50%" x2="50%" y1="0%" y2="72.896%"><stop offset="0%" stop-color="#C8C8C8" stop-opacity="0"/><stop offset="100%" stop-color="#979797"/></linearGradient><linearGradient id="linearGradient-2" x1="10.156%" x2="90.195%" y1="50%" y2="50%"><stop offset="0%" stop-color="#3286A8"/><stop offset="100%" stop-color="#D5491F"/></linearGradient></defs><g id="Landing-Page" fill="none" fill-rule="evenodd" stroke="none" stroke-width="1"><g id="Pendulum"><path id="Line-2" stroke="url(#linearGradient-1)" stroke-linecap="square" stroke-width="3" d="M75.1339746,229 L75.1339746,2"/><g class="swinging-ball left-ball"><path id="Line-1---Swinging" stroke="url(#linearGradient-1)" stroke-linecap="square" stroke-width="3" d="M24.1339746,228 L24.1339746,1"/><circle id="Ball-1---Swinging" cx="24.634" cy="206.5" r="25" fill="#3286A8"/></g><path id="Line-3" stroke="url(#linearGradient-1)" stroke-linecap="square" stroke-width="3" d="M125.133975,229 L125.133975,2"/><path id="Line-4" stroke="url(#linearGradient-1)" stroke-linecap="square" stroke-width="3" d="M175.133975,229 L175.133975,2"/><path id="Line-5" stroke="url(#linearGradient-1)" stroke-linecap="square" stroke-width="3" d="M225.133975,229 L225.133975,2"/><path id="Line-6" stroke="url(#linearGradient-1)" stroke-linecap="square" stroke-width="3" d="M275.133975,229 L275.133975,2"/><g class="swinging-ball right-ball"><path id="Line-7---Swinging" stroke="url(#linearGradient-1)" stroke-linecap="square" stroke-width="3" d="M325.133975,229 L325.133975,2"/><circle id="Ball-7---Swinging" cx="324.634" cy="206.5" r="25" fill="#D5491F"/></g><path id="Combined-Shape" fill="url(#linearGradient-2)" fill-opacity=".3" d="M174.633975,328.5 C188.441093,328.5 199.633975,324.022847 199.633975,318.5 C199.633975,312.977153 188.441093,308.5 174.633975,308.5 C160.826856,308.5 149.633975,312.977153 149.633975,318.5 C149.633975,324.022847 160.826856,328.5 174.633975,328.5 L174.633975,328.5 Z M224.633975,328.5 C238.441093,328.5 249.633975,324.022847 249.633975,318.5 C249.633975,312.977153 238.441093,308.5 224.633975,308.5 C210.826856,308.5 199.633975,312.977153 199.633975,318.5 C199.633975,324.022847 210.826856,328.5 224.633975,328.5 L224.633975,328.5 Z M274.633975,328.5 C288.441093,328.5 299.633975,324.022847 299.633975,318.5 C299.633975,312.977153 288.441093,308.5 274.633975,308.5 C260.826856,308.5 249.633975,312.977153 249.633975,318.5 C249.633975,324.022847 260.826856,328.5 274.633975,328.5 L274.633975,328.5 Z M124.633975,328.5 C138.441093,328.5 149.633975,324.022847 149.633975,318.5 C149.633975,312.977153 138.441093,308.5 124.633975,308.5 C110.826856,308.5 99.6339746,312.977153 99.6339746,318.5 C99.6339746,324.022847 110.826856,328.5 124.633975,328.5 L124.633975,328.5 Z M74.6339746,328.5 C88.4410933,328.5 99.6339746,324.022847 99.6339746,318.5 C99.6339746,312.977153 88.4410933,308.5 74.6339746,308.5 C60.8268559,308.5 49.6339746,312.977153 49.6339746,318.5 C49.6339746,324.022847 60.8268559,328.5 74.6339746,328.5 L74.6339746,328.5 Z"/><path id="Shadow-7---Swinging" fill="#D5491F" fill-opacity=".3" d="M324.633975,329.5 C338.441093,329.5 349.633975,324.022847 349.633975,318.5 C349.633975,312.977153 338.441093,308.5 324.633975,308.5 C310.826856,308.5 299.633975,312.977153 299.633975,318.5 C299.633975,324.022847 310.826856,329.5 324.633975,329.5 Z" class="shadow right-shadow"/><path id="Combined-Shape" fill="url(#linearGradient-2)" d="M74.6339746,231.5 C88.4410933,231.5 99.6339746,220.307119 99.6339746,206.5 C99.6339746,192.692881 88.4410933,181.5 74.6339746,181.5 C60.8268559,181.5 49.6339746,192.692881 49.6339746,206.5 C49.6339746,220.307119 60.8268559,231.5 74.6339746,231.5 L74.6339746,231.5 Z M124.633975,231.5 C138.441093,231.5 149.633975,220.307119 149.633975,206.5 C149.633975,192.692881 138.441093,181.5 124.633975,181.5 C110.826856,181.5 99.6339746,192.692881 99.6339746,206.5 C99.6339746,220.307119 110.826856,231.5 124.633975,231.5 L124.633975,231.5 Z M174.633975,231.5 C188.441093,231.5 199.633975,220.307119 199.633975,206.5 C199.633975,192.692881 188.441093,181.5 174.633975,181.5 C160.826856,181.5 149.633975,192.692881 149.633975,206.5 C149.633975,220.307119 160.826856,231.5 174.633975,231.5 L174.633975,231.5 Z M224.633975,231.5 C238.441093,231.5 249.633975,220.307119 249.633975,206.5 C249.633975,192.692881 238.441093,181.5 224.633975,181.5 C210.826856,181.5 199.633975,192.692881 199.633975,206.5 C199.633975,220.307119 210.826856,231.5 224.633975,231.5 L224.633975,231.5 Z M274.633975,231.5 C288.441093,231.5 299.633975,220.307119 299.633975,206.5 C299.633975,192.692881 288.441093,181.5 274.633975,181.5 C260.826856,181.5 249.633975,192.692881 249.633975,206.5 C249.633975,220.307119 260.826856,231.5 274.633975,231.5 L274.633975,231.5 Z"/><ellipse id="Shadow-1---Swinging" cx="25" cy="319" fill="#3286A8" fill-opacity=".3" class="shadow left-shadow" rx="25" ry="10"/></g></g><style type="text/css">@keyframes swingLeft{0%{transform:rotate(30deg)}43%{transform:rotate(-.25deg)}46%{transform:rotate(0deg)}}@keyframes shadow-animation-left{0%{transform:translateX(-95px);opacity:.6}43%{transform:translateX(2px);opacity:1}46%{transform:translateX(0);opacity:1}}@keyframes shadow-animation-right{0%,43%{transform:translateX(0);opacity:1}46%{transform:translateX(-2px);opacity:1}}@keyframes swingRight{0%,43%{transform:rotate(0deg)}46%{transform:rotate(.25deg)}}.left-ball{transform-origin:top right;animation-name:swingLeft;animation-timing-function:ease-in}.swinging-ball{animation-duration:600ms;animation-iteration-count:infinite;animation-direction:alternate}.right-ball{transform-origin:top left;animation-name:swingRight;animation-timing-function:ease-out}.shadow{animation-duration:600ms;animation-iteration-count:infinite;animation-direction:alternate;transform-origin:center}.left-shadow{animation-name:shadow-animation-left;animation-timing-function:ease-in}.right-shadow{animation-name:shadow-animation-right;animation-timing-function:ease-out}</style></svg>