<svg xmlns="http://www.w3.org/2000/svg" xmlns:amcharts="http://amcharts.com/ammap" xmlns:xlink="http://www.w3.org/1999/xlink" version="1.1"><defs><style type="text/css">.land{fill:#ccc;fill-opacity:1;stroke:#fff;stroke-opacity:1;stroke-width:.5}</style><amcharts:ammap bottomLatitude="16.817" leftLongitude="-62.994" projection="mercator" rightLongitude="-61.448" topLatitude="17.929"/></defs><g><path id="AG-04" d="M658.28,700.87L603.26,707.19L600.07,751.26L538.53,780.95L571.74,797.95L617.99,803.18L608.3,852.64L632.54,846.3L681.04,831.08L681.04,817.13L644.67,752.44L658.28,700.87z" class="land" title="Saint John"/><path id="AG-05" d="M632.54,846.3L608.3,852.64L617.99,803.18L571.74,797.95L551,873.25L645.57,896.81L632.54,846.3z" class="land" title="Saint Mary"/><path id="AG-06" d="M738.05,858.08L729.54,826.01L681.04,831.08L632.54,846.3L645.57,896.81L677.91,882.85L725.1,919.25L738.05,858.08z" class="land" title="Saint Paul"/><path id="AG-08" d="M738.05,858.08L799.6,848.87L775.23,807.2L798.29,787.07L751.59,790.21L729.54,826.01L738.05,858.08z" class="land" title="Saint Philip"/><path id="AG-07" d="M751.59,790.21L758.99,747.01L717.75,730.01L702.18,764.01L681.04,817.13L681.04,831.08L729.54,826.01L751.59,790.21z" class="land" title="Saint Peter"/><path id="AG-03" d="M702.18,764.01L658.28,700.87L644.67,752.44L681.04,817.13L702.18,764.01z" class="land" title="Saint George"/><path id="AG-11" d="M0.4,990.4L5.16,986.56L2.16,981.49L0.4,990.4L0.4,990.4z" class="land" title="Redonda"/><path id="AG-10" d="M605.49,0L583.35,33.19L613.32,58.87L613.03,141.97L563.62,21.27L562.65,45.57L604.13,167.53L685.26,227.07L733.99,193.09L704.74,73.48L613.03,39.08L605.49,0z" class="land" title="Barbuda"/></g></svg>