<svg xmlns="http://www.w3.org/2000/svg" xmlns:amcharts="http://amcharts.com/ammap" xmlns:xlink="http://www.w3.org/1999/xlink" version="1.1"><defs><style type="text/css">.land{fill:#ccc;fill-opacity:1;stroke:#fff;stroke-opacity:1;stroke-width:.5}</style><amcharts:ammap bottomLatitude="19.263" leftLongitude="-81.42" projection="mercator" rightLongitude="-79.723" topLatitude="19.757"/></defs><g><path id="KY" d="M15.33,244.21L72.39,243.11L87.95,231.54L134.32,230.78L157.2,221.2L155.82,208.48L142.6,199.8L98.15,202.15L63.04,191.95L69.16,212.38L59.49,208.99L46,225.04L26.38,216.2L20.88,181.7L5.5,181.08L1.63,191.17L16.27,206.75L15.33,244.21zM686.34,23.64L640.22,25.75L616.14,46.8L632.73,49.12L686.34,23.64zM796.07,0L778.45,0.03L719.58,36.27L737.85,30.64L776.09,19.4L798.37,7.53L796.07,0z" class="land" title="Cayman Islands"/></g></svg>