<svg xmlns="http://www.w3.org/2000/svg" xmlns:amcharts="http://amcharts.com/ammap" xmlns:xlink="http://www.w3.org/1999/xlink" version="1.1"><defs><style type="text/css">.land{fill:#ccc;fill-opacity:1;stroke:#fff;stroke-opacity:1;stroke-width:.5}</style><amcharts:ammap bottomLatitude="15.207" leftLongitude="-61.48" projection="mercator" rightLongitude="-61.24" topLatitude="15.64"/></defs><g><path id="DM-11" d="M271.05,453.18L85.88,353.52L16.55,361.16L56.34,528.02L112.21,580.16L277.86,482.79L271.05,453.18z" class="land" title="Saint Peter"/><path id="DM-10" d="M538.46,998.23L515.1,792.6L403.46,845.26L243.4,843.85L318.16,1108.79L538.46,998.23z" class="land" title="Saint Paul"/><path id="DM-09" d="M475.69,1461.07L569.76,1351.47L706.47,1327.84L775.02,1206.39L783.71,1042.75L603.02,1098.07L441.56,1315.5L444.75,1350.08L475.69,1461.07z" class="land" title="Saint Patrick"/><path id="DM-08" d="M383.23,1484.85L475.69,1461.07L444.75,1350.08L386.97,1377.45L383.23,1484.85z" class="land" title="Saint Mark"/><path id="DM-07" d="M441.56,1315.5L386.29,1292.85L386.97,1377.45L444.75,1350.08L441.56,1315.5z" class="land" title="Saint Luke"/><path id="DM-06" d="M572.51,654.44L503.29,566.61L277.86,482.79L112.21,580.16L243.4,843.85L403.46,845.26L515.1,792.6L572.51,654.44z" class="land" title="Saint Joseph"/><path id="DM-05" d="M66.65,0L0.27,189.16L89.46,210.86L0.27,307.53L16.55,361.16L85.88,353.52L271.05,453.18L232.69,191.82L162.35,134.19L132.62,2.68L66.65,0z" class="land" title="Saint John"/><path id="DM-04" d="M603.02,1098.07L538.46,998.23L318.16,1108.79L386.29,1292.85L441.56,1315.5L603.02,1098.07z" class="land" title="Saint George"/><path id="DM-03" d="M783.71,1042.75L799.73,806.04L754.12,782.38L735.11,429.27L714.14,547.46L572.51,654.44L515.1,792.6L538.46,998.23L603.02,1098.07L783.71,1042.75z" class="land" title="Saint David"/><path id="DM-02" d="M735.11,429.27L604.79,189.16L439.17,123.2L348.07,157.59L210.28,18.61L132.62,2.68L162.35,134.19L232.69,191.82L271.05,453.18L277.86,482.79L503.29,566.61L572.51,654.44L714.14,547.46L735.11,429.27z" class="land" title="Saint Andrew"/></g></svg>