<svg xmlns="http://www.w3.org/2000/svg" xmlns:amcharts="http://amcharts.com/ammap" xmlns:xlink="http://www.w3.org/1999/xlink" version="1.1"><defs><style type="text/css">.land{fill:#ccc;fill-opacity:1;stroke:#fff;stroke-opacity:1;stroke-width:.5}</style><amcharts:ammap bottomLatitude="-1.662" leftLongitude="5.417" projection="mercator" rightLongitude="11.36" topLatitude="3.989"/></defs><g><path id="GQ-BS" d="M437.75,25.51L420.36,17.92L394.52,47.61L398.34,70.5L428.67,79L453.48,34.46L437.75,25.51z" class="land" title="Bioko Sur"/><path id="GQ-BN" d="M430.94,0L420.36,17.92L437.75,25.51L453.48,34.46L461.76,1.43L430.94,0z" class="land" title="Bioko Norte"/><path id="GQ-WN" d="M732.82,256.47L684.87,258.6L692.92,304.47L749.73,306.46L720.99,343.1L747.34,386.6L799.46,386.77L798.85,284.13L755.01,284.08L746.06,251.88L732.82,256.47z" class="land" title="Wele-Nzás"/><path id="GQ-LI" d="M519.35,402.66L515.5,395.56L514.77,400.23L519.35,402.66zM608.39,223.05L581.68,200.79L585.87,255.8L557.54,296.47L576.73,302.68L555.72,306.58L521.08,361.23L554.33,380.65L573,368.01L602.17,396.8L612.54,386.69L651.14,367.12L628.07,317.87L601,305.9L639.07,223.51L608.39,223.05z" class="land" title="Litoral"/><path id="GQ-KN" d="M798.85,284.13L797.46,223.49L669.81,223.5L675.65,257.6L684.87,258.6L732.82,256.47L746.06,251.88L755.01,284.08L798.85,284.13z" class="land" title="Kié-Ntem"/><path id="GQ-CS" d="M675.65,257.6L669.81,223.5L639.07,223.51L601,305.9L628.07,317.87L651.14,367.12L612.54,386.69L747.34,386.6L720.99,343.1L749.73,306.46L692.92,304.47L684.87,258.6L675.65,257.6z" class="land" title="Centro Sur"/><path id="GQ-AN" d="M0.92,733.06L1.5,724.68L0.54,730.34L0.92,733.06z" class="land" title="Annobón"/></g></svg>