<svg xmlns="http://www.w3.org/2000/svg" xmlns:xlink="http://www.w3.org/1999/xlink" width="1260" height="1260" version="1.1" viewBox="0 0 1260 1260"><title>Animated Personal Logo</title><desc>Author: Kevin Hou</desc><g id="Square-Logo" fill="none" fill-rule="evenodd" stroke="none" stroke-width="1"><g id="Logo---Clean-SVG"><rect id="background" width="1260" height="1260" x="0" y="0" fill="#FFF" class="kh-logo-background" rx="125"/><rect id="outline" width="1257" height="1257" x="1.5" y="1.5" stroke="#3286A8" stroke-width="10" class="kh-logo-outline" rx="125"/><path id="final-left" fill="#3286A8" d="M640,0 L640,120 L500,120 L500,837 L242,540 L57,540 L315,840 L57,1140 L242,1140 L500,839 L500,1140 L640,1140 L640,1260 L125.002712,1260 C55.9656206,1260 0,1204.02885 0,1134.99661 L0,125.003386 C0,55.9659223 55.9604005,0 125.002712,0 L640,0 Z" class="kh-logo-background"/><polygon id="k" fill="#FFF" stroke="#3286A8" stroke-width="10" points="499.351 1140 640 1140 640 120 499.35 120 499.351 836 242.112 540 57.016 540 314.601 839.991 57 1140 242.096 1140 499.351 839.991" class="kh-logo-k"/><path id="h" stroke="#D5491F" stroke-width="10" d="M780,506.724388 C782.540303,505.569792 785.105834,504.445653 787.695787,503.352607 C827.095043,486.724805 872.145563,477.292305 920,477.292305 C1067.23291,477.292305 1187.924,566.58012 1199.14777,680 L1200,1140 L1060,1140 L1060,720.292305 C1056.95056,653.574618 995.444342,600.292305 920,600.292305 C844.555658,600.292305 783.049438,653.574618 780.109953,720.292305 L780,887.741465 L780,1140 L640,1140 L640,120 L780,120 L780,506.724388 L780,506.724388 Z" class="kh-logo-k"/><path id="h" fill="#D5491F" d="M780,506.724388 C782.540303,505.569792 785.105834,504.445653 787.695787,503.352607 C827.095043,486.724805 872.145563,477.292305 920,477.292305 C1067.23291,477.292305 1187.924,566.58012 1199.14777,680 L1200,1140 L1060,1140 L1060,720.292305 C1056.95056,653.574618 995.444342,600.292305 920,600.292305 C844.555658,600.292305 783.049438,653.574618 780.109953,720.292305 L780,887.741465 L780,1140 L640,1140 L640,120 L780,120 L780,506.724388 L780,506.724388 Z" class="kh-logo-background"/></g></g><style>.kh-logo-background{opacity:0;-webkit-animation:drawLogoFadeIn 1000ms ease-in-out;animation:drawLogoFadeIn 1000ms ease-in-out;-webkit-animation-delay:2500ms;animation-delay:2500ms;-webkit-animation-fill-mode:forwards;animation-fill-mode:forwards}.kh-logo-k,.kh-logo-outline{stroke-dasharray:4400;stroke-dashoffset:100;-webkit-animation:drawLogo 2500ms ease-in-out;animation:drawLogo 2500ms ease-in-out}.kh-logo-outline{stroke-dasharray:5200;stroke-dashoffset:300}</style></svg>