<?xml version="1.0" encoding="UTF-8" standalone="no"?>
<svg width="1260px" height="1260px" viewBox="0 0 1260 1260" version="1.1" xmlns="http://www.w3.org/2000/svg" xmlns:xlink="http://www.w3.org/1999/xlink">
    <!-- Generator: Sketch 39.1 (31720) - http://www.bohemiancoding.com/sketch -->
    <title>Frame 1</title>
    <desc>Created with Sketch.</desc>
    <defs></defs>
    <g id="Animated-SVG-Logo" stroke="none" stroke-width="1" fill="none" fill-rule="evenodd">
        <g id="Frame-1" fill="#3286A8">
            <polygon id="H-Leg" points="829.612521 155.495162 694.382905 119.260495 430.387479 1104.50484 565.617095 1140.7395"></polygon>
            <polygon id="K-Leg" points="829.612521 155.495162 694.382905 119.260495 430.387479 1104.50484 565.617095 1140.7395"></polygon>
            <polygon id="K-Carrot" points="452.009987 330 266.919991 330 10 629.99061 266.900002 929.999955 452.000832 929.999939 194.750008 629.990595"></polygon>
            <path d="M807.02002,331.000002 L874.999999,411.999994 L972,521.999994 C1046,608 1065,630.000019 1065,630.000009 C1065,630 945,768 807.02002,930 L901,930 L993,929.999979 L1249,630.000007 C1161,522 993,331.000001 993,331 C993,330.999999 965,331.000001 909,331.000001 L807.02002,331.000002 Z" id="H-Body"></path>
        </g>
    </g>
</svg>